<svg width="125" height="126" viewBox="0 0 125 126" fill="none" xmlns="http://www.w3.org/2000/svg">
<rect y="0.416504" width="125" height="125" rx="28" fill="#022E34"/>
<path d="M62.4987 104.366C85.5106 104.366 104.165 85.7112 104.165 62.6994C104.165 39.6875 85.5106 21.0327 62.4987 21.0327C39.4868 21.0327 20.832 39.6875 20.832 62.6994C20.832 85.7112 39.4868 104.366 62.4987 104.366Z" fill="#1D8269"/>
<path d="M62.4987 104.366C85.5106 104.366 104.165 85.7112 104.165 62.6994C104.165 39.6875 85.5106 21.0327 62.4987 21.0327C39.4868 21.0327 20.832 39.6875 20.832 62.6994C20.832 85.7112 39.4868 104.366 62.4987 104.366Z" fill="url(#paint0_radial_530_3036)" fill-opacity="0.9"/>
<path d="M52.082 99.1576C69.3409 99.1576 83.332 82.8347 83.332 62.6993C83.332 42.5639 69.3409 26.241 52.082 26.241C34.8231 26.241 20.832 42.5639 20.832 62.6993C20.832 82.8347 34.8231 99.1576 52.082 99.1576Z" fill="url(#paint1_linear_530_3036)"/>
<path d="M52.082 99.1576C69.3409 99.1576 83.332 82.8347 83.332 62.6993C83.332 42.5639 69.3409 26.241 52.082 26.241C34.8231 26.241 20.832 42.5639 20.832 62.6993C20.832 82.8347 34.8231 99.1576 52.082 99.1576Z" fill="url(#paint2_radial_530_3036)" fill-opacity="0.9"/>
<path d="M41.6654 93.9495C53.1713 93.9495 62.4987 79.9584 62.4987 62.6995C62.4987 45.4406 53.1713 31.4495 41.6654 31.4495C30.1594 31.4495 20.832 45.4406 20.832 62.6995C20.832 79.9584 30.1594 93.9495 41.6654 93.9495Z" fill="url(#paint3_linear_530_3036)"/>
<path d="M41.6654 93.9495C53.1713 93.9495 62.4987 79.9584 62.4987 62.6995C62.4987 45.4406 53.1713 31.4495 41.6654 31.4495C30.1594 31.4495 20.832 45.4406 20.832 62.6995C20.832 79.9584 30.1594 93.9495 41.6654 93.9495Z" fill="url(#paint4_radial_530_3036)"/>
<path d="M31.2487 83.5326C37.0017 83.5326 41.6654 74.2052 41.6654 62.6993C41.6654 51.1934 37.0017 41.866 31.2487 41.866C25.4957 41.866 20.832 51.1934 20.832 62.6993C20.832 74.2052 25.4957 83.5326 31.2487 83.5326Z" fill="#57D188"/>
<path d="M31.2487 83.5326C37.0017 83.5326 41.6654 74.2052 41.6654 62.6993C41.6654 51.1934 37.0017 41.866 31.2487 41.866C25.4957 41.866 20.832 51.1934 20.832 62.6993C20.832 74.2052 25.4957 83.5326 31.2487 83.5326Z" fill="url(#paint5_linear_530_3036)" fill-opacity="0.85"/>
<defs>
<radialGradient id="paint0_radial_530_3036" cx="0" cy="0" r="1" gradientUnits="userSpaceOnUse" gradientTransform="translate(52.082 72.465) rotate(-90) scale(46.2239 39.2949)">
<stop offset="0.585" stop-color="#022E34"/>
<stop offset="1" stop-color="#022E34" stop-opacity="0"/>
</radialGradient>
<linearGradient id="paint1_linear_530_3036" x1="52.082" y1="-5.44306" x2="52.082" y2="99.1576" gradientUnits="userSpaceOnUse">
<stop stop-color="#2C9C74"/>
<stop offset="1" stop-color="#3FB67D"/>
</linearGradient>
<radialGradient id="paint2_radial_530_3036" cx="0" cy="0" r="1" gradientUnits="userSpaceOnUse" gradientTransform="translate(41.6654 72.6819) rotate(-90) scale(40.832 27.0604)">
<stop offset="0.485" stop-color="#022E34"/>
<stop offset="1" stop-color="#022E34" stop-opacity="0"/>
</radialGradient>
<linearGradient id="paint3_linear_530_3036" x1="41.6654" y1="6.70988" x2="41.6654" y2="93.9495" gradientUnits="userSpaceOnUse">
<stop stop-color="#2C9C74"/>
<stop offset="1" stop-color="#57D188"/>
</linearGradient>
<radialGradient id="paint4_radial_530_3036" cx="0" cy="0" r="1" gradientUnits="userSpaceOnUse" gradientTransform="translate(30.3806 69.6439) rotate(-86.1575) scale(29.1454 15.2636)">
<stop offset="0.350058" stop-color="#022E34"/>
<stop offset="0.95" stop-color="#022E34" stop-opacity="0"/>
</radialGradient>
<linearGradient id="paint5_linear_530_3036" x1="31.2487" y1="3.67153" x2="31.2487" y2="83.5326" gradientUnits="userSpaceOnUse">
<stop stop-color="#2C9C74"/>
<stop offset="1" stop-color="#70EB94"/>
</linearGradient>
</defs>
</svg>
