<svg width="440" height="240" viewBox="0 0 440 240" fill="none" xmlns="http://www.w3.org/2000/svg">
<rect width="440" height="240" rx="16" fill="#022E34"/>
<path d="M120.891 98.9543C120.891 95.7971 123.444 93.3916 126.672 93.3916C129.826 93.3916 132.304 95.7971 132.304 98.9543C132.304 102.187 129.826 104.517 126.672 104.517C123.369 104.517 120.891 102.187 120.891 98.9543ZM122.017 145.711V108.877H130.952V145.711H122.017Z" fill="white"/>
<path d="M174.425 94.2188V145.786H165.715V140.975C163.012 144.207 159.183 146.688 153.852 146.688C143.266 146.688 135.382 138.344 135.382 127.369C135.382 116.545 143.341 108.125 153.777 108.125C159.033 108.125 162.787 110.531 165.49 113.688V94.2188H174.425ZM166.016 127.294C166.016 121.205 161.736 116.094 155.129 116.094C148.597 116.094 144.317 121.205 144.317 127.294C144.317 133.533 148.597 138.57 155.129 138.57C161.661 138.57 166.016 133.533 166.016 127.294Z" fill="white"/>
<path d="M215.945 130.451H187.639C188.766 135.187 192.219 138.945 198.977 138.945C203.181 138.945 207.987 137.366 211.215 135.111L214.744 141.426C211.29 143.982 205.359 146.537 198.601 146.537C184.636 146.537 178.479 137.066 178.479 127.294C178.479 116.319 186.213 108.05 197.775 108.05C208.212 108.05 216.171 114.89 216.171 126.542C216.246 128.045 216.096 129.248 215.945 130.451ZM187.639 123.761H207.461C206.71 118.574 202.881 115.417 197.775 115.417C192.67 115.417 188.841 118.649 187.639 123.761Z" fill="white"/>
<path d="M258.592 108.877V145.71H250.108V141.2C247.33 144.357 243.351 146.613 238.02 146.613C227.283 146.613 219.625 138.043 219.625 127.143C219.625 116.093 227.433 108.05 238.02 108.05C243.351 108.05 247.255 110.455 250.108 113.612V108.952H258.592V108.877ZM250.333 127.294C250.333 121.205 245.903 116.093 239.371 116.093C232.839 116.093 228.484 121.205 228.484 127.294C228.484 133.458 232.839 138.569 239.371 138.569C245.828 138.569 250.333 133.458 250.333 127.294Z" fill="white"/>
<path d="M264.223 145.711V94.2188H273.083V145.786H264.223V145.711Z" fill="white"/>
<path d="M276.762 139.396L281.793 133.984C284.346 137.291 288.175 139.17 291.779 139.17C295.007 139.17 297.26 137.442 297.26 135.337C297.26 133.758 296.209 132.706 294.482 131.804C292.379 130.751 287.574 129.173 285.247 127.97C281.042 125.94 279.015 122.633 279.015 118.574C279.015 112.259 284.27 107.674 292.53 107.674C297.26 107.674 301.915 109.328 305.294 113.086L300.638 118.724C298.011 116.018 294.857 114.89 292.304 114.89C289.451 114.89 287.799 116.469 287.799 118.348C287.799 119.626 288.625 121.054 291.028 121.956C293.43 122.934 297.034 124.136 299.963 125.64C304.092 127.82 306.27 130.676 306.27 135.036C306.27 141.576 300.638 146.688 291.854 146.688C285.922 146.688 280.291 144.282 276.762 139.396Z" fill="white"/>
<path d="M308.522 141.501C308.522 138.57 310.925 136.314 313.928 136.314C316.781 136.314 319.109 138.57 319.109 141.501C319.109 144.583 316.781 146.763 313.928 146.763C310.925 146.838 308.522 144.583 308.522 141.501Z" fill="white"/>
</svg>
